# xmcd
#
# Track frame offsets:
#	150
#	21830
#	41426
#	55703
#	73434
#	93700
#	117318
#
# Disc length: 2337 seconds
#
# Revision: 2
# Processed by: cddbd v1.5.2PL0 Copyright (c) Steve Scherf et al.
# Submitted via: EZCDAudioConverter 7.0.6.1
#
DISCID=60091f07
DTITLE=Shinki Chen - Shinki Chen (19971)
DYEAR=1971
DGENRE=
TTITLE0=The Dark Sea Dream
TTITLE1=Requiem Of Confusion
TTITLE2=Freedom Of A Mad Paper Lantern
TTITLE3=Gloomy Reflections
TTITLE4=It Was Only Yesterday
TTITLE5=Corpse
TTITLE6=Farewell To Hypocrites
EXTD=
EXTT0=
EXTT1=
EXTT2=
EXTT3=
EXTT4=
EXTT5=
EXTT6=
PLAYORDER=
